<?xml version="1.0" standalone="no"?><!DOCTYPE svg PUBLIC "-//W3C//DTD SVG 1.1//EN" "http://www.w3.org/Graphics/SVG/1.1/DTD/svg11.dtd"><svg class="icon" width="128px" height="128.00px" viewBox="0 0 1024 1024" version="1.1" xmlns="http://www.w3.org/2000/svg"><path fill="" d="M853.333333 853.333333l-170.666667 0c-25.6 0-42.666667-17.066667-42.666667-42.666667s17.066667-42.666667 42.666667-42.666667l170.666667 0c46.933333 0 85.333333-38.4 85.333333-85.333333L938.666667 170.666667c0-46.933333-38.4-85.333333-85.333333-85.333333L170.666667 85.333333C123.733333 85.333333 85.333333 123.733333 85.333333 170.666667l0 512c0 46.933333 38.4 85.333333 85.333333 85.333333l170.666667 0c25.6 0 42.666667 17.066667 42.666667 42.666667s-17.066667 42.666667-42.666667 42.666667L170.666667 853.333333c-93.866667 0-170.666667-76.8-170.666667-170.666667L0 170.666667c0-93.866667 76.8-170.666667 170.666667-170.666667l682.666667 0c93.866667 0 170.666667 76.8 170.666667 170.666667l0 512C1024 776.533333 947.2 853.333333 853.333333 853.333333zM512 1024c-12.8 0-21.333333-4.266667-29.866667-12.8l-170.666667-170.666667c-17.066667-17.066667-17.066667-42.666667 0-59.733333s42.666667-17.066667 59.733333 0l140.8 140.8 140.8-140.8c17.066667-17.066667 42.666667-17.066667 59.733333 0s17.066667 42.666667 0 59.733333l-170.666667 170.666667C533.333333 1019.733333 524.8 1024 512 1024zM768 298.666667 256 298.666667C230.4 298.666667 213.333333 281.6 213.333333 256s17.066667-42.666667 42.666667-42.666667l512 0c25.6 0 42.666667 17.066667 42.666667 42.666667S793.6 298.666667 768 298.666667zM554.666667 469.333333 256 469.333333c-25.6 0-42.666667-17.066667-42.666667-42.666667s17.066667-42.666667 42.666667-42.666667l298.666667 0c25.6 0 42.666667 17.066667 42.666667 42.666667S580.266667 469.333333 554.666667 469.333333zM682.666667 640 256 640c-25.6 0-42.666667-17.066667-42.666667-42.666667s17.066667-42.666667 42.666667-42.666667l426.666667 0c25.6 0 42.666667 17.066667 42.666667 42.666667S708.266667 640 682.666667 640z" /></svg>