<?xml version="1.0" standalone="no"?><!DOCTYPE svg PUBLIC "-//W3C//DTD SVG 1.1//EN" "http://www.w3.org/Graphics/SVG/1.1/DTD/svg11.dtd"><svg class="icon" width="200px" height="200.00px" viewBox="0 0 1024 1024" version="1.1" xmlns="http://www.w3.org/2000/svg"><path fill="#333333" d="M924.992 200.992H96.992q-15.008 0-25.504-10.496t-10.496-25.504 10.496-25.504 25.504-10.496h828q15.008 0 25.504 10.496t10.496 25.504-10.496 25.504-25.504 10.496zM99.008 446.016H664q15.008 0 25.504 10.496t10.496 25.504-10.496 25.504-25.504 10.496H99.008q-15.008 0-25.504-10.496t-10.496-25.504 10.496-25.504 25.504-10.496zM96.992 824h824.992q15.008 0 25.504 10.496t10.496 25.504-10.496 25.504-25.504 10.496H96.992q-15.008 0-25.504-10.496t-10.496-25.504 10.496-25.504 25.504-10.496z m730.016-208.992q-11.008 10.016-26.016 10.016t-24.992-11.008q-11.008-10.016-11.008-24.992t11.008-24.992l96-94.016-94.016-88q-11.008-11.008-11.488-26.016t9.504-25.504 24.992-11.008 26.016 9.504l120.992 114.016q11.008 11.008 11.008 26.016t-11.008 26.016z" /></svg>