<?xml version="1.0" standalone="no"?><!DOCTYPE svg PUBLIC "-//W3C//DTD SVG 1.1//EN" "http://www.w3.org/Graphics/SVG/1.1/DTD/svg11.dtd"><svg class="icon" width="200px" height="200.00px" viewBox="0 0 1024 1024" version="1.1" xmlns="http://www.w3.org/2000/svg"><path fill="#333333" d="M96.992 200.992h828q15.008 0 25.504-10.496t10.496-25.504-10.496-25.504-25.504-10.496H96.992q-15.008 0-25.504 10.496t-10.496 25.504 10.496 25.504 25.504 10.496z m826.016 245.024H358.016q-15.008 0-25.504 10.496t-10.496 25.504 10.496 25.504 25.504 10.496h564.992q15.008 0 25.504-10.496t10.496-25.504-10.496-25.504-25.504-10.496z m1.984 377.984H100q-15.008 0-25.504 10.496T64 860t10.496 25.504 25.504 10.496h824.992q15.008 0 25.504-10.496t10.496-25.504-10.496-25.504-25.504-10.496zM195.008 615.008q11.008 10.016 24.992 10.016 15.008 0 26.016-11.008 10.016-10.016 10.016-24.992t-10.016-24.992l-96-94.016 94.016-88q11.008-11.008 11.488-26.016t-10.016-25.504-25.504-11.008-24.992 9.504l-120.992 114.016q-12 11.008-12 26.016t11.008 26.016z" /></svg>