<?xml version="1.0" standalone="no"?><!DOCTYPE svg PUBLIC "-//W3C//DTD SVG 1.1//EN" "http://www.w3.org/Graphics/SVG/1.1/DTD/svg11.dtd"><svg t="1556277225599" class="icon" style="" viewBox="0 0 1025 1024" version="1.1" xmlns="http://www.w3.org/2000/svg" p-id="14460" xmlns:xlink="http://www.w3.org/1999/xlink" width="200.1953125" height="200"><defs><style type="text/css"></style></defs><path d="M971.387916 23.759347 28.09806 518.407462c-38.802954 20.336728-37.211038 50.145356 3.502215 66.263506l120.428449 47.59829c40.633657 16.078352 102.240808 7.362612 136.785387-19.660163L811.83813 200.183443c34.385387-27.102371 38.086592-23.082783 8.198368 8.91473l-413.500194 442.672056c-29.96782 31.878119-21.05309 70.959658 19.699961 86.839021l14.088457 5.531908c40.753051 15.759969 107.374738 42.265371 147.928799 58.821298l133.561757 54.363933c40.593859 16.516129 73.785309 30.206607 73.785309 30.445394 0 0.238787 0.238787 0.994948 0.437777 1.034745 0.19899 0.079596 9.790284-34.385387 21.252079-76.650758L1020.976101 63.676642C1032.437897 21.371473 1010.19087 3.462417 971.387916 23.759347z" p-id="14461" fill="#ffffff"></path><path d="M410.874275 788.794403l-92.410727-37.808006c-40.514264-16.595725-59.935639 2.865449-43.140925 43.339914 0.039798 0 85.804275 206.710299 83.416401 213.993315-2.46747 7.243218 82.30206-122.657132 82.30206-122.657132C464.99942 848.96883 451.388538 805.390128 410.874275 788.794403z" p-id="14462" fill="#ffffff"></path></svg>